# xmcd
#
# Track frame offsets: 
#        150
#        26551
#        48677
#        66228
#        91578
#        109578
#        139053
#        158399
#        179024
#        200774
#        225596
#        250566
#        269916
#
# Disc length: 3938 seconds
#
# Revision: 0
# Processed by: cddbd v1.5.2PL0 Copyright (c) Steve Scherf et al.
# Submitted via: ExactAudioCopyFreeDBPlugin 1.0
#
DISCID=b20f600d
DTITLE=Khanh Ly - Chang nhac si va con chim nho D2
DYEAR=1900
DGENRE=Ballad
TTITLE0=Xin cho toi
TTITLE1=Tren canh dong hoa binh
TTITLE2=Lam sao em khoc
TTITLE3=Huyen thoai me
TTITLE4=Nguyen cau cho nguoi
TTITLE5=Nhu mot vet thuong
TTITLE6=Noi vong tay lon
TTITLE7=Can nha xua
TTITLE8=Dau chan dia dang
TTITLE9=Trung vuong khung cua mua thu
TTITLE10=Tinh khuc cho em
TTITLE11=Giot sau roi
TTITLE12=Nang thuy tinh
EXTD=
EXTT0=
EXTT1=
EXTT2=
EXTT3=
EXTT4=
EXTT5=
EXTT6=
EXTT7=
EXTT8=
EXTT9=
EXTT10=
EXTT11=
EXTT12=
PLAYORDER=
